<svg xmlns="http://www.w3.org/2000/svg" xmlns:xlink="http://www.w3.org/1999/xlink" version="1.1" x="0px" y="0px" viewBox="0 0 32 40" style="enable-background:new 0 0 32 32;" xml:space="preserve"><style type="text/css">
	.st0{display:none;}
	.st1{display:inline;}
</style><g><path d="M17.02,1.135c-0.484-0.048-0.925,0.341-0.958,0.837c-0.034,0.496,0.341,0.925,0.837,0.958C23.74,3.394,29.1,9.135,29.1,16   c0,7.224-5.876,13.1-13.1,13.1c-3.791,0-7.394-1.641-9.885-4.502c-0.327-0.374-0.896-0.413-1.27-0.088   c-0.375,0.326-0.414,0.895-0.088,1.27C7.591,29.033,11.688,30.9,16,30.9c8.216,0,14.9-6.685,14.9-14.9   C30.9,8.191,24.803,1.661,17.02,1.135z"/><path d="M8.43,5.12c0.17,0,0.34-0.051,0.49-0.141c0-0.01,0.01-0.01,0.01-0.01c1.05-0.68,2.19-1.2,3.38-1.54   c0.471-0.14,0.75-0.649,0.61-1.12C12.78,1.85,12.27,1.56,11.8,1.7c-1.36,0.399-2.66,0.989-3.86,1.76   C7.689,3.63,7.53,3.91,7.53,4.22c0,0.18,0.05,0.34,0.14,0.49C7.84,4.97,8.12,5.12,8.43,5.12z"/><path d="M2.899,16c0-0.5-0.399-0.9-0.899-0.9S1.1,15.5,1.1,16c0,1.41,0.2,2.8,0.58,4.13c0.01,0.02,0.01,0.05,0.021,0.07v0.01   c0.119,0.37,0.47,0.63,0.859,0.63c0.09,0,0.17-0.01,0.25-0.03c0.391-0.12,0.66-0.47,0.65-0.87c0-0.09-0.01-0.17-0.03-0.25   C3.08,18.49,2.899,17.25,2.899,16z"/><path d="M5.33,6.89C4.939,6.6,4.359,6.68,4.069,7.069C3.22,8.21,2.53,9.46,2.04,10.79c-0.04,0.1-0.061,0.2-0.061,0.31   c0,0.37,0.23,0.72,0.58,0.851C2.66,11.979,2.77,12,2.88,12c0.37,0,0.71-0.23,0.84-0.58c0.44-1.17,1.04-2.271,1.79-3.271   C5.81,7.75,5.729,7.189,5.33,6.89z"/><path d="M11.875,15.1c-0.497,0-0.9,0.403-0.9,0.9s0.403,0.9,0.9,0.9H15.1v3.225c0,0.497,0.403,0.9,0.9,0.9s0.9-0.403,0.9-0.9V16.9   h3.225c0.497,0,0.9-0.403,0.9-0.9s-0.403-0.9-0.9-0.9H16.9v-3.225c0-0.497-0.403-0.9-0.9-0.9s-0.9,0.403-0.9,0.9V15.1H11.875z"/></g><text x="0" y="47" fill="#000000" font-size="5px" font-weight="bold" font-family="'Helvetica Neue', Helvetica, Arial-Unicode, Arial, Sans-serif">Created by Rikas Dzihab</text><text x="0" y="52" fill="#000000" font-size="5px" font-weight="bold" font-family="'Helvetica Neue', Helvetica, Arial-Unicode, Arial, Sans-serif">from the Noun Project</text></svg>