<svg xmlns="http://www.w3.org/2000/svg" xmlns:xlink="http://www.w3.org/1999/xlink" xml:space="preserve" version="1.1" style="shape-rendering:geometricPrecision;text-rendering:geometricPrecision;image-rendering:optimizeQuality;" viewBox="0 0 333 416.25" x="0px" y="0px" fill-rule="evenodd" clip-rule="evenodd"><defs><style type="text/css">
   
    .fil0 {fill:black}
   
  </style></defs><g><g><path class="fil0" d="M196 105l-17 30 34 0 19 32 0 0 15 26 -92 -1 -34 -59 46 -79 29 51zm-13 0l-16 -28 -33 56 28 48 65 1 -20 -36 -48 0 24 -41z"/><path class="fil0" d="M232 279l14 -24 -56 -1 -33 -58 92 1 48 82 -65 0zm20 -11l25 0 -13 -22 -12 22zm11 -25l-21 -35 -66 0 21 35 66 0z"/><polygon class="fil0" points="118,138 200,279 167,279 134,279 114,245 94,279 37,279 102,167 102,167 "/></g></g><text x="0" y="348" fill="#000000" font-size="5px" font-weight="bold" font-family="'Helvetica Neue', Helvetica, Arial-Unicode, Arial, Sans-serif">Created by Rafina Andra</text><text x="0" y="353" fill="#000000" font-size="5px" font-weight="bold" font-family="'Helvetica Neue', Helvetica, Arial-Unicode, Arial, Sans-serif">from the Noun Project</text></svg>