<svg xmlns="http://www.w3.org/2000/svg" viewBox="0 0 64 80" x="0px" y="0px"><title>delete, no, filter</title><g data-name="No Filter"><path d="M51.487,10.817H12.513a3.5,3.5,0,0,0-3.5,3.5v4.345a3.481,3.481,0,0,0,1.327,2.744L25.025,33.038,26.68,50.022a3.487,3.487,0,0,0,3.484,3.161h3.672a3.487,3.487,0,0,0,3.484-3.161l1.655-16.984L53.66,21.406a3.481,3.481,0,0,0,1.327-2.744V14.317A3.5,3.5,0,0,0,51.487,10.817Zm.5,7.845a.5.5,0,0,1-.19.393L36.612,31.082a1.5,1.5,0,0,0-.561,1.03L34.334,49.731a.5.5,0,0,1-.5.452H30.164a.5.5,0,0,1-.5-.452L27.949,32.112a1.5,1.5,0,0,0-.561-1.03L12.2,19.055a.5.5,0,0,1-.19-.393V14.317a.5.5,0,0,1,.5-.5H51.487a.5.5,0,0,1,.5.5Zm.573,19.7-2.822,2.822,2.822,2.821a1.5,1.5,0,0,1-2.122,2.121l-2.821-2.821L44.8,46.128a1.5,1.5,0,0,1-2.121-2.121L45.5,41.186l-2.821-2.822A1.5,1.5,0,0,1,44.8,36.243l2.821,2.821,2.821-2.821a1.5,1.5,0,0,1,2.122,2.121Z"/></g><text x="0" y="79" fill="#000000" font-size="5px" font-weight="bold" font-family="'Helvetica Neue', Helvetica, Arial-Unicode, Arial, Sans-serif">Created by The Icon Z</text><text x="0" y="84" fill="#000000" font-size="5px" font-weight="bold" font-family="'Helvetica Neue', Helvetica, Arial-Unicode, Arial, Sans-serif">from the Noun Project</text></svg>