<svg xmlns="http://www.w3.org/2000/svg" viewBox="0 0 48 60" x="0px" y="0px"><path d="M28,33a7,7,0,1,0,7-7A7,7,0,0,0,28,33Zm12,0a5,5,0,1,1-5-5A5,5,0,0,1,40,33Z"/><path d="M33.54,30a1,1,0,1,0-1.45,1.37l1.65,1.76-1.65,1.76a1,1,0,0,0,.72,1.68,1,1,0,0,0,.73-.31l1.58-1.67,1.58,1.67a1,1,0,0,0,.72.31,1,1,0,0,0,.73-1.68L36.49,33.1l1.66-1.76A1,1,0,0,0,36.7,30l-1.58,1.67Z"/><path d="M24,33.53a11.24,11.24,0,0,0,1.74-.14,1,1,0,1,0-.3-2,9.87,9.87,0,0,1-1.44.11A9.5,9.5,0,1,1,33.44,22a8.71,8.71,0,0,1-.1,1.36,1,1,0,0,0,.85,1.13,1,1,0,0,0,1.13-.85A11.21,11.21,0,0,0,35.44,22,11.5,11.5,0,1,0,24,33.53Z"/><path d="M7.28,39.62a1,1,0,0,0,.7-.29L15.28,32a1,1,0,1,0-1.42-1.42L6.57,37.91a1,1,0,0,0,.71,1.71Z"/><text x="0" y="63" fill="#000000" font-size="5px" font-weight="bold" font-family="'Helvetica Neue', Helvetica, Arial-Unicode, Arial, Sans-serif">Created by Daniel T.</text><text x="0" y="68" fill="#000000" font-size="5px" font-weight="bold" font-family="'Helvetica Neue', Helvetica, Arial-Unicode, Arial, Sans-serif">from the Noun Project</text></svg>